<svg xmlns="http://www.w3.org/2000/svg" version="1.1" xmlns:xlink="http://www.w3.org/1999/xlink" xmlns:svgjs="http://svgjs.dev/svgjs" width="1500" height="1500" viewBox="0 0 1500 1500"><rect width="1500" height="1500" fill="#000000"></rect><g transform="matrix(0.6666666666666666,0,0,0.6666666666666666,249.39393939393932,663.9354376023239)"><svg viewBox="0 0 396 68" data-background-color="#ffffff" preserveAspectRatio="xMidYMid meet" height="257" width="1500" xmlns="http://www.w3.org/2000/svg" xmlns:xlink="http://www.w3.org/1999/xlink"><g id="tight-bounds" transform="matrix(1,0,0,1,0.24000000000003752,0.15791970647072162)"><svg viewBox="0 0 395.5199999999999 67.68416058705854" height="67.68416058705854" width="395.5199999999999"><g><svg viewBox="0 0 656.8180399827698 112.39931658239998" height="67.68416058705854" width="395.5199999999999"><g transform="matrix(1,0,0,1,261.29803998276986,20.476670815196698)"><svg viewBox="0 0 395.52 71.44597495200658" height="71.44597495200658" width="395.52"><g id="textblocktransform"><svg viewBox="0 0 395.52 71.44597495200658" height="71.44597495200658" width="395.52" id="textblock"><g><svg viewBox="0 0 395.52 71.44597495200658" height="71.44597495200658" width="395.52"><g transform="matrix(1,0,0,1,0,0)"><svg width="395.52" viewBox="2.71 -35.74 267.04 48.24" height="71.44597495200658" data-palette-color="#000000"><path d="M2.71-27L2.71-27Q2.71-30.86 6.03-33.3 9.35-35.74 13.7-35.74L13.7-35.74Q17.04-35.74 20.36-34.2L20.36-34.2Q21.46-33.72 22.85-32.64L22.85-32.64 21.14-28.96Q20.04-29.81 18.85-30.44L18.85-30.44Q16.04-31.93 13.7-31.96L13.7-31.96Q11.16-31.96 9.18-30.65 7.2-29.35 7.2-27L7.2-27Q7.2-26.05 7.58-25.24 7.96-24.44 8.89-23.73L8.89-23.73 10.3-22.63Q10.79-22.27 12.17-21.56 13.55-20.85 13.7-20.75L13.7-20.75 16.02-19.48Q17.7-18.55 18.31-18.14L18.31-18.14 20.14-16.92Q21.39-16.09 21.9-15.42 22.41-14.75 23.06-13.77 23.71-12.79 23.95-11.65 24.19-10.5 24.19-9.11L24.19-9.11Q24.19-4.91 20.7-2.08 17.21 0.76 12.7 0.76L12.7 0.76Q8.94 0.76 5.44-1.34L5.44-1.34Q3.91-2.25 2.71-3.49L2.71-3.49 4.44-7.25Q5.83-6.01 7.2-5.15L7.2-5.15Q10.4-3.05 12.7-3.05L12.7-3.05Q15.6-3.05 17.65-4.75 19.7-6.45 19.7-9.11L19.7-9.11Q19.7-11.45 17.96-13.31 16.21-15.16 13.7-16.43L13.7-16.43 8.69-19.04Q6.2-20.39 4.46-22.4 2.71-24.41 2.71-27ZM29.59-12.6L29.59-12.6Q29.59-18.6 32.79-22.18 35.98-25.76 41.23-25.76L41.23-25.76Q51.68-25.76 51.68-11.01L51.68-11.01 33.74-11.01Q33.98-7.91 36.01-5.48 38.03-3.05 42.19-3.05L42.19-3.05Q46.99-3.05 50.44-4.64L50.44-4.64 50.44-0.71Q46.68 0.73 42.72 0.76L42.72 0.76Q39.28 0.76 36.7-0.32 34.13-1.39 32.6-3.27 31.08-5.15 30.33-7.5 29.59-9.84 29.59-12.6ZM33.88-14.31L33.88-14.31 47.39-14.31Q47.04-17.65 45.53-19.8 44.02-21.95 41.14-21.95L41.14-21.95Q38.28-21.95 36.28-19.85 34.27-17.75 33.88-14.31ZM60.77-3.13Q56.93-7.01 56.93-12.5 56.93-17.99 60.77-21.88 64.62-25.76 70.06-25.76L70.06-25.76Q73.41-25.76 76.83-25L76.83-25 76.83-21.19Q73.43-21.95 70.06-21.95L70.06-21.95Q66.25-21.95 63.64-19.18 61.03-16.41 61.03-12.5 61.03-8.59 63.65-5.82 66.28-3.05 70.06-3.05L70.06-3.05Q73.41-3.05 76.83-3.81L76.83-3.81 76.83 0Q73.43 0.76 70.06 0.76L70.06 0.76Q64.62 0.76 60.77-3.13ZM86.96 0L82.81 0 82.81-25 85.81-25 86.42-23.24Q89.62-25.68 92.11-25.71L92.11-25.71Q94.82-25.71 97.11-24.51L97.11-24.51 95.48-21.14Q93.33-21.9 91.52-21.9L91.52-21.9Q89.03-21.9 86.96-20.04L86.96-20.04 86.96 0ZM99.84-12.6L99.84-12.6Q99.84-18.6 103.04-22.18 106.24-25.76 111.49-25.76L111.49-25.76Q121.94-25.76 121.94-11.01L121.94-11.01 103.99-11.01Q104.24-7.91 106.26-5.48 108.29-3.05 112.44-3.05L112.44-3.05Q117.25-3.05 120.69-4.64L120.69-4.64 120.69-0.71Q116.93 0.73 112.98 0.76L112.98 0.76Q109.54 0.76 106.96-0.32 104.38-1.39 102.86-3.27 101.33-5.15 100.59-7.5 99.84-9.84 99.84-12.6ZM104.14-14.31L104.14-14.31 117.64-14.31Q117.3-17.65 115.79-19.8 114.27-21.95 111.39-21.95L111.39-21.95Q108.53-21.95 106.53-19.85 104.53-17.75 104.14-14.31ZM130.53-21.14L126.28-21.14 126.28-25 130.53-25 130.53-32.25 134.78-32.25 134.78-25 140.98-25 140.98-21.14 134.78-21.14 134.78-7.35Q134.78-5.49 135.35-4.68 135.93-3.86 137.88-3.86L137.88-3.86 140.47-3.86 140.47 0 135.97 0Q133.53 0 132.03-1.29 130.53-2.59 130.53-4.81L130.53-4.81 130.53-21.14ZM146.37-3.25L146.37-3.25 149.06-6.1Q150.01-5.35 151.52-4.54L151.52-4.54Q154.43-3.05 156.5-3.05L156.5-3.05Q158.36-3.05 160.17-4.08 161.97-5.1 161.97-6.96L161.97-6.96Q161.97-8.67 160.24-9.75 158.51-10.84 154.4-12.35L154.4-12.35Q152.69-12.96 151.76-13.35 150.82-13.75 149.59-14.53 148.37-15.31 147.79-16.36 147.2-17.41 147.2-18.75L147.2-18.75Q147.2-21.9 150.11-23.83 153.01-25.76 156.65-25.76L156.65-25.76Q159.36-25.76 162.46-24.44L162.46-24.44Q163.75-23.88 164.9-23.14L164.9-23.14 162.36-20.09Q161.56-20.58 160.61-21L160.61-21Q158.41-21.95 156.65-21.95L156.65-21.95Q154.6-21.95 152.98-21.04 151.35-20.14 151.35-18.75L151.35-18.75Q151.35-18.31 151.76-17.88 152.16-17.46 153.04-17.05 153.92-16.65 154.54-16.41 155.16-16.16 156.31-15.75L156.31-15.75Q159.12-14.7 160.48-14.07 161.85-13.45 163.38-12.4 164.9-11.35 165.51-10.05 166.12-8.74 166.12-6.96L166.12-6.96Q166.12-4.42 164.41-2.59 162.7-0.76 160.61 0 158.51 0.76 156.5 0.76L156.5 0.76Q153.45 0.76 149.57-1.25L149.57-1.25Q147.86-2.15 146.37-3.25ZM186.8 0L182.3 0 196.76-35.01 201.25-35.01 215.85 0 211.36 0 206.45-11.69 191.61-11.69 186.8 0ZM199-30.4L193-14.99 205.11-14.99 199-30.4ZM224.32 12.5L220.17 12.5 220.17-25 222.85-25 223.51-23.61Q227.91-25.76 231.5-25.76L231.5-25.76Q234.94-25.76 237.45-23.75 239.97-21.75 241.07-18.85 242.17-15.94 242.17-12.65L242.17-12.65Q242.17-6.88 239.26-3.06 236.35 0.76 231.06 0.76L231.06 0.76Q227.52 0.76 224.32-0.9L224.32-0.9 224.32 12.5ZM224.32-20.75L224.32-4.1Q226.71-2.86 230.35-2.86L230.35-2.86Q233.21-2.86 234.98-4.41 236.75-5.96 237.36-8.11 237.97-10.25 237.97-13.11L237.97-13.11Q237.97-17.16 236.01-19.75 234.06-22.34 231.15-22.34L231.15-22.34Q228.15-22.34 224.32-20.75L224.32-20.75ZM251.9 12.5L247.75 12.5 247.75-25 250.44-25 251.1-23.61Q255.49-25.76 259.08-25.76L259.08-25.76Q262.52-25.76 265.04-23.75 267.55-21.75 268.65-18.85 269.75-15.94 269.75-12.65L269.75-12.65Q269.75-6.88 266.85-3.06 263.94 0.76 258.64 0.76L258.64 0.76Q255.1 0.76 251.9-0.9L251.9-0.9 251.9 12.5ZM251.9-20.75L251.9-4.1Q254.3-2.86 257.93-2.86L257.93-2.86Q260.79-2.86 262.56-4.41 264.33-5.96 264.94-8.11 265.55-10.25 265.55-13.11L265.55-13.11Q265.55-17.16 263.6-19.75 261.64-22.34 258.74-22.34L258.74-22.34Q255.74-22.34 251.9-20.75L251.9-20.75Z" opacity="1" transform="matrix(1,0,0,1,0,0)" fill="#ffffff" class="wordmark-text-0" data-fill-palette-color="primary" id="text-0"></path></svg></g></svg></g></svg></g></svg></g><g><svg viewBox="0 0 244.43135999999996 112.39931658239998" height="112.39931658239998" width="244.43135999999996"><g><svg xmlns="http://www.w3.org/2000/svg" xmlns:xlink="http://www.w3.org/1999/xlink" version="1.1" x="0" y="0" viewBox="0 26 100 45.983999999999995" enable-background="new 0 0 100 100" xml:space="preserve" height="112.39931658239998" width="244.43135999999996" class="icon-icon-0" data-fill-palette-color="accent" id="icon-0"><g fill="#000000" data-fill-palette-color="accent"><path d="M0 48.992C0 61.689 10.294 71.984 22.992 71.984 31.983 71.984 39.768 66.82 43.548 59.298H52.325L56.326 52.368 60.327 59.298H65.011L69.012 52.368 73.013 59.298H77.696L81.697 52.368 85.698 59.298H93.203L100 47.523 95.813 40.271H44.27C40.834 31.898 32.603 26 22.992 26 10.294 26 0 36.295 0 48.992M91.426 45.336A1.786 1.786 0 0 1 91.426 48.906H45.982A23 23 0 0 0 45.692 45.336zM22.992 62.814C15.357 62.814 9.169 56.626 9.169 48.992S15.357 35.17 22.992 35.17z" fill="#ffffff" data-fill-palette-color="accent"></path></g></svg></g></svg></g></svg></g><defs></defs></svg><rect width="395.5199999999999" height="67.68416058705854" fill="none" stroke="none" visibility="hidden"></rect></g></svg></g></svg>